# File created by Blade
# Date/Time:  Wed Jan 21 15:55:59 2015
#---------------------------------------------------------
:version 1.10
:name HOM
:units
  mass 1.0
  length 1.000000
  angle deg
:documentation
     Acclaim Skeleton File
:root
   axis xyz
   order TX TY TZ RX RY RZ
   position 0.000000 0.000000 0.000000
   orientation 0 0 0
:bonedata
   begin
      id 1
      name Spine_dum
      direction 0.000000 1.000000 0.000000
      length 7.067664
      axis 0.0 0.0 0.0 xyz
   end
   begin
      id 2
      name LeftUpLeg_dum
      direction 1.000000 0.000000 0.000000
      length 4.013002
      axis 0.0 0.0 0.0 xyz
   end
   begin
      id 3
      name RightUpLeg_dum
      direction -1.000000 0.000000 0.000000
      length 4.013002
      axis 0.0 0.0 0.0 xyz
   end
   begin
      id 4
      name Spine
      direction 0.000000 1.000000 0.000000
      length 0.000000
      axis 0.0 0.0 0.0 xyz
      dof rx ry rz
   end
   begin
      id 5
      name Spine_dum1
      direction 0.000000 1.000000 0.000000
      length 15.039886
      axis 0.0 0.0 0.0 xyz
   end
   begin
      id 6
      name Spine_dum2
      direction 0.000000 1.000000 0.000000
      length 10.530368
      axis 0.0 0.0 0.0 xyz
   end
   begin
      id 7
      name Spine_dum3
      direction 0.000000 1.000000 0.000000
      length 10.530368
      axis 0.0 0.0 0.0 xyz
   end
   begin
      id 8
      name Head
      direction 0.000000 1.000000 0.000000
      length 4.527550
      axis 0.0 0.0 0.0 xyz
      dof rx ry rz
   end
   begin
      id 9
      name LeftShoulder
      direction 1.000000 0.000000 0.000000
      length 7.028855
      axis 0.0 0.0 -90.0 xyz
      dof rx ry rz
   end
   begin
      id 10
      name LeftArm
      direction 1.000000 0.000000 0.000000
      length 10.797705
      axis 0.0 0.0 -90.0 xyz
      dof rx ry rz
   end
   begin
      id 11
      name LeftForeArm
      direction 1.000000 0.000000 0.000000
      length 7.907442
      axis 0.0 0.0 -90.0 xyz
      dof ry rz rx
   end
   begin
      id 12
      name LeftHand
      direction 0.000000 0.000000 0.000000
      length 0.000000
      axis 0.0 0.0 -90.0 xyz
      dof rx ry rz
   end
   begin
      id 13
      name LeftHand_dum1
      direction 0.000000 0.000000 0.000000
      length 0.000000
      axis 0.0 0.0 -90.0 xyz
   end
   begin
      id 14
      name LeftHand_dum2
      direction 1.000000 0.000000 0.000000
      length 3.937000
      axis 0.0 0.0 -90.0 xyz
   end
   begin
      id 15
      name LeftHandThumb1
      direction 0.000000 0.000000 1.000000
      length 3.937000
      axis 0.0 0.0 -90.0 xyz
      dof rx rz ry
   end
   begin
      id 16
      name RightShoulder
      direction -1.000000 0.000000 0.000000
      length 7.028855
      axis 0.0 0.0 90.0 xyz
      dof rx ry rz
   end
   begin
      id 17
      name RightArm
      direction -1.000000 0.000000 0.000000
      length 10.797705
      axis 0.0 0.0 90.0 xyz
      dof rx ry rz
   end
   begin
      id 18
      name RightForeArm
      direction -1.000000 0.000000 0.000000
      length 7.907442
      axis 0.0 0.0 90.0 xyz
      dof ry rz rx
   end
   begin
      id 19
      name RightHand
      direction 0.000000 0.000000 0.000000
      length 0.000000
      axis 0.0 0.0 90.0 xyz
      dof rx ry rz
   end
   begin
      id 20
      name RightHand_dum1
      direction 0.000000 0.000000 0.000000
      length 0.000000
      axis 0.0 0.0 90.0 xyz
   end
   begin
      id 21
      name RightHand_dum2
      direction -1.000000 0.000000 0.000000
      length 3.937000
      axis 0.0 0.0 90.0 xyz
   end
   begin
      id 22
      name RightHandThumb1
      direction 0.000000 0.000000 1.000000
      length 3.937000
      axis 0.0 0.0 90.0 xyz
      dof rx rz ry
   end
   begin
      id 23
      name LeftUpLeg
      direction 0.000000 -1.000000 0.000000
      length 16.899758
      axis 0.0 0.0 0.0 xyz
      dof rx ry rz
   end
   begin
      id 24
      name LeftLeg
      direction 0.000000 -1.000000 0.000000
      length 17.389183
      axis 0.0 0.0 0.0 xyz
      dof rx ry rz
   end
   begin
      id 25
      name LeftFoot
      direction 0.000000 -0.258819 0.965926
      length 4.924528
      axis 15.0 0.0 0.0 xyz
      dof rx ry rz
   end
   begin
      id 26
      name LeftToeBase
      direction 0.000000 0.000000 1.000000
      length 2.952750
      axis 0.0 0.0 0.0 xyz
      dof rx ry rz
   end
   begin
      id 27
      name RightUpLeg
      direction 0.000000 -1.000000 0.000000
      length 16.899758
      axis 0.0 0.0 0.0 xyz
      dof rx ry rz
   end
   begin
      id 28
      name RightLeg
      direction 0.000000 -1.000000 0.000000
      length 17.389183
      axis 0.0 0.0 0.0 xyz
      dof rx ry rz
   end
   begin
      id 29
      name RightFoot
      direction 0.000000 -0.258819 0.965926
      length 4.924528
      axis 15.0 0.0 0.0 xyz
      dof rx ry rz
   end
   begin
      id 30
      name RightToeBase
      direction 0.000000 0.000000 1.000000
      length 2.952750
      axis 0.0 0.0 0.0 xyz
      dof rx ry rz
   end
:hierarchy
   begin
      root Spine_dum LeftUpLeg_dum RightUpLeg_dum
      Spine_dum Spine
      LeftUpLeg_dum LeftUpLeg
      RightUpLeg_dum RightUpLeg
      Spine Spine_dum1 Spine_dum2 Spine_dum3
      Spine_dum1 Head
      Spine_dum2 LeftShoulder
      Spine_dum3 RightShoulder
      LeftShoulder LeftArm
      LeftArm LeftForeArm
      LeftForeArm LeftHand
      LeftHand LeftHand_dum1 LeftHand_dum2
      LeftHand_dum1 LeftHandThumb1
      RightShoulder RightArm
      RightArm RightForeArm
      RightForeArm RightHand
      RightHand RightHand_dum1 RightHand_dum2
      RightHand_dum1 RightHandThumb1
      LeftUpLeg LeftLeg
      LeftLeg LeftFoot
      LeftFoot LeftToeBase
      RightUpLeg RightLeg
      RightLeg RightFoot
      RightFoot RightToeBase
   end

# File created by Blade
# Date/Time:  Wed Jan 21 15:55:51 2015
# Frame Rate: 120.000 fps
#------------------------------------------------------
:FULLY-SPECIFIED
:DEGREES
1
root 17.813584 35.430702 -22.157204 -174.289735 -0.513414 -178.369773
Spine -13.700350 1.005117 0.259087
Head 5.144291 -2.170655 1.580322
LeftShoulder -13.640364 -28.182431 20.163204
LeftArm -1.333029 -0.519835 -8.814902
LeftForeArm 7.069069 0.000000 -1.857278
LeftHand -8.268092 0.000000 -6.467599
LeftHandThumb1 -26.253704 0.000000 33.147579
RightShoulder -15.382623 -10.389713 -7.754553
RightArm 8.432844 37.899818 13.843239
RightForeArm -33.536606 0.000000 6.591004
RightHand -5.873838 0.000000 8.461140
RightHandThumb1 -24.326973 -0.000000 -32.862282
LeftUpLeg 4.726994 10.712668 2.543248
LeftLeg -7.327227 -0.000000 0.000000
LeftFoot -21.673368 25.935122 -13.865978
LeftToeBase 25.833268 -0.000000 -0.000000
RightUpLeg 3.045564 -12.056327 -0.504263
RightLeg -3.781987 -0.000000 0.000000
RightFoot -21.094083 -22.997478 17.625002
RightToeBase 23.479106 -0.000000 -0.000000
2
root 17.813622 35.430767 -22.151603 -174.295080 -0.526757 -178.376689
Spine -13.691825 0.997038 0.254044
Head 5.173448 -2.176903 1.579531
LeftShoulder -13.604799 -28.173114 20.154940
LeftArm -1.344676 -0.518169 -8.836824
LeftForeArm 7.037308 -0.000000 -1.864543
LeftHand -8.265888 0.000000 -6.478468
LeftHandThumb1 -26.253704 0.000000 33.147579
RightShoulder -15.375952 -10.386084 -7.754276
RightArm 8.424405 37.894519 13.870184
RightForeArm -33.508139 -0.000000 6.560056
RightHand -5.836191 -0.000000 8.420428
RightHandThumb1 -24.326973 -0.000000 -32.862282
LeftUpLeg 4.714530 10.718076 2.537218
LeftLeg -7.317218 -0.000000 0.000000
LeftFoot -21.668958 25.916859 -13.855336
LeftToeBase 25.834603 -0.000000 -0.000000
RightUpLeg 3.042979 -12.056620 -0.508566
RightLeg -3.786612 -0.000000 0.000000
RightFoot -21.103926 -23.019014 17.619286
RightToeBase 23.576329 -0.000000 -0.000000
3
root 17.812796 35.431437 -22.145708 -174.304279 -0.515498 -178.369225
Spine -13.674913 1.004099 0.281153
Head 5.181627 -2.143813 1.561904
LeftShoulder -13.598931 -28.160414 20.132620
LeftArm -1.334512 -0.549761 -8.849755
LeftForeArm 7.073419 -0.000000 -1.877053
LeftHand -8.215353 -0.000000 -6.576004
LeftHandThumb1 -26.253704 0.000000 33.147579
RightShoulder -15.388112 -10.444186 -7.756205
RightArm 8.484015 37.894949 13.932354
RightForeArm -33.481309 0.000000 6.525763
RightHand -5.841461 -0.000000 8.370083
RightHandThumb1 -24.326973 -0.000000 -32.862282
LeftUpLeg 4.711901 10.727891 2.542732
LeftLeg -7.308708 -0.000000 0.000000
LeftFoot -21.663018 25.916212 -13.850778
LeftToeBase 25.834602 -0.000000 -0.000000
RightUpLeg 3.030290 -12.054250 -0.503353
RightLeg -3.761967 -0.000000 0.000000
RightFoot -21.096348 -23.002958 17.620407
RightToeBase 23.498437 -0.000000 -0.000000
4
root 17.811765 35.432217 -22.139229 -174.318701 -0.520150 -178.370768
Spine -13.646260 1.006661 0.288918
Head 5.158207 -2.137696 1.577337
LeftShoulder -13.569325 -28.171044 20.117266
LeftArm -1.349384 -0.546921 -8.867170
LeftForeArm 7.064264 -0.000000 -1.872751
LeftHand -8.220976 -0.000000 -6.589151
LeftHandThumb1 -26.253704 0.000000 33.147579
RightShoulder -15.384990 -10.432389 -7.747245
RightArm 8.480016 37.939517 13.948605
RightForeArm -33.580913 -0.000000 6.524452
RightHand -5.865351 -0.000000 8.450539
RightHandThumb1 -24.326973 -0.000000 -32.862282
LeftUpLeg 4.710310 10.715501 2.540332
LeftLeg -7.299214 -0.000000 0.000000
LeftFoot -21.659168 25.926023 -13.851011
LeftToeBase 25.810702 -0.000000 -0.000000
RightUpLeg 3.032844 -12.062950 -0.508211
RightLeg -3.757228 -0.000000 0.000000
RightFoot -21.081583 -22.998262 17.608704
RightToeBase 23.434162 -0.000000 -0.000000
5
root 17.810767 35.432652 -22.132826 -174.328160 -0.520180 -178.370418
Spine -13.618281 1.016144 0.295785
Head 5.135270 -2.131141 1.585818
LeftShoulder -13.569362 -28.166136 20.111396
LeftArm -1.320322 -0.583356 -8.891005
LeftForeArm 7.072888 -0.000000 -1.888538
LeftHand -8.195976 -0.000000 -6.608809
LeftHandThumb1 -26.253704 0.000000 33.147579
RightShoulder -15.362544 -10.370203 -7.759712
RightArm 8.431015 37.878855 13.936955
RightForeArm -33.660891 -0.000000 6.454001
RightHand -5.802323 0.000000 8.323234
RightHandThumb1 -24.326973 -0.000000 -32.862282
LeftUpLeg 4.702670 10.717788 2.539096
LeftLeg -7.287335 -0.000000 0.000000
LeftFoot -21.662012 25.928686 -13.836302
LeftToeBase 25.811431 -0.000000 -0.000000
RightUpLeg 3.022663 -12.065894 -0.508907
RightLeg -3.740206 -0.000000 0.000000
RightFoot -21.087364 -22.985828 17.629883
RightToeBase 23.428756 -0.000000 -0.000000
